<svg height="512pt" viewBox="0 0 512 512.00013" width="512pt" xmlns="http://www.w3.org/2000/svg"><path d="m510.277344 285.800781c-1.757813 14.839844-15.046875 25.980469-29.726563 25.050781l-2.441406-.0625c-15.261719.070313-29.421875 9.480469-35.28125 23.460938-6.257813 14.910156-2.339844 32.269531 9.730469 43.199219 11.140625 10.089843 12.480468 27.152343 3.050781 38.851562-12.171875 15.167969-26.109375 28.949219-41.410156 40.9375-11.890625 9.203125-28.398438 7.8125-38.488281-3.179687-10.210938-11.207032-29.070313-15.507813-42.972657-9.828125-14.730469 6.03125-24.238281 20.878906-23.660156 36.960937.5 14.808594-10.597656 27.640625-25.269531 29.257813-9.160156 1.019531-18.519532 1.539062-27.808594 1.550781h-.289062c-9.863282 0-19.792969-.578125-29.511719-1.710938-14.921875-1.707031-25.941407-14.828124-25.050781-29.867187.910156-16.210937-8.5-31.332031-23.429688-37.582031-13.980469-5.859375-32.929688-1.578125-43.167969 9.742187-10.113281 11.148438-27.179687 12.488281-38.871093 3.066407-15.050782-12.117188-28.679688-25.910157-40.519532-41-9.121094-11.527344-7.769531-28.4375 3.109375-38.449219 11.890625-10.898438 15.800781-28.117188 9.757813-42.867188-6-14.5625-20.238282-24.113281-35.339844-23.710937h-.378906c-13.410156 0-28.96875-9.632813-30.710938-25.191406-2.167968-19.429688-2.128906-39.019532.113282-58.210938 1.816406-14.949219 13.96875-25.417969 29.007812-25.089844 17.410156-.070312 32.480469-9.230468 38.421875-23.378906 6.25-14.917969 2.347656-32.289062-9.710937-43.210938-11.109376-10.109374-12.441407-27.148437-3.058594-38.828124 12.097656-15.101563 26.039062-28.878907 41.417968-40.949219 11.671876-9.113281 28.582032-7.679688 38.53125 3.21875 10.167969 11.179687 29 15.480469 42.898438 9.808593 14.730469-6.027343 24.25-20.910156 23.691406-37.007812-.492187-14.78125 10.609375-27.609375 25.269532-29.230469 9.21875-1.019531 18.507812-1.5390622 27.820312-1.550781 9.9375-.0117188 19.890625.558594 29.769531 1.699219 14.96875 1.75 25.980469 14.871093 25.078125 29.882812-.917968 16.199219 8.480469 31.328125 23.402344 37.597657 13.980469 5.839843 32.960938 1.570312 43.160156-9.730469 10.070313-11.140625 27.117188-12.519531 38.828125-3.128907 14.921875 11.960938 28.582031 25.75 40.582031 40.980469 9.160157 11.621094 7.789063 28.550781-3.132812 38.53125-11.839844 10.859375-15.75 28.078125-9.707031 42.847657 5.890625 14.390624 20.027343 23.691406 36.007812 23.691406 13.261719 0 28.652344 9.640625 30.402344 25.199218 2.179687 19.441407 2.136719 39.03125-.113281 58.230469zm0 0" fill="#2999ff"/><path d="m510.277344 285.800781c-1.757813 14.839844-15.046875 25.980469-29.726563 25.050781l-2.441406-.0625c-15.261719.070313-29.421875 9.480469-35.28125 23.460938-6.257813 14.910156-2.339844 32.269531 9.730469 43.199219 11.140625 10.089843 12.480468 27.152343 3.050781 38.851562-12.171875 15.167969-26.109375 28.949219-41.410156 40.9375-11.890625 9.203125-28.398438 7.8125-38.488281-3.179687-10.210938-11.207032-29.070313-15.507813-42.972657-9.828125-14.730469 6.03125-24.238281 20.878906-23.660156 36.960937.5 14.808594-10.597656 27.640625-25.269531 29.257813-9.160156 1.019531-18.519532 1.539062-27.808594 1.550781v-512c9.9375-.0117188 19.890625.558594 29.769531 1.699219 14.96875 1.75 25.980469 14.871093 25.078125 29.882812-.917968 16.199219 8.480469 31.328125 23.402344 37.597657 13.980469 5.839843 32.960938 1.570312 43.160156-9.730469 10.070313-11.140625 27.117188-12.519531 38.828125-3.128907 14.921875 11.960938 28.582031 25.75 40.582031 40.980469 9.160157 11.621094 7.789063 28.550781-3.132812 38.53125-11.839844 10.859375-15.75 28.078125-9.707031 42.847657 5.890625 14.390624 20.027343 23.691406 36.007812 23.691406 13.261719 0 28.652344 9.640625 30.402344 25.199218 2.179687 19.441407 2.136719 39.03125-.113281 58.230469zm0 0" fill="#3e7eff"/><path d="m398.378906 256c0 78.511719-63.871094 142.378906-142.382812 142.378906-78.511719 0-142.378906-63.867187-142.378906-142.378906s63.871093-142.378906 142.378906-142.378906c78.511718 0 142.382812 63.867187 142.382812 142.378906zm0 0" fill="#fff"/><path d="m398.378906 256c0 78.511719-63.871094 142.378906-142.382812 142.378906v-284.757812c78.511718 0 142.382812 63.867187 142.382812 142.378906zm0 0" fill="#fff5ea"/><path d="m277.726562 265.582031c-4.089843 1.957031-6.730468 6.359375-6.730468 11.21875 0 8.289063-6.710938 15-15 15-8.28125 0-15-6.710937-15-15 0-12.730469 5.671875-24.671875 15-32.589843 2.648437-2.242188 5.582031-4.160157 8.769531-5.691407 7.589844-3.628906 12.121094-11.429687 11.539063-19.847656-.699219-10.050781-8.789063-18.140625-18.828126-18.832031-.5-.03125-.992187-.050782-1.480468-.050782-5.191406.011719-10.070313 1.921876-13.878906 5.472657-4.179688 3.886719-6.480469 9.179687-6.480469 14.878906 0 8.289063-6.710938 15-15 15-8.28125 0-15-6.710937-15-15 0-13.902344 5.839843-27.320313 16.007812-36.808594 9.453125-8.820312 21.53125-13.570312 34.351563-13.550781 1.171875 0 2.359375.050781 3.539062.128906 24.902344 1.71875 44.980469 21.789063 46.699219 46.691406 1.433594 20.777344-9.757813 40-28.507813 48.980469zm0 0" fill="#ffc837"/><path d="m270.996094 317.871094v9.347656c0 8.28125-6.710938 15-15 15-8.28125 0-15-6.71875-15-15v-9.347656c0-8.28125 6.71875-15 15-15 8.289062 0 15 6.71875 15 15zm0 0" fill="#ffc837"/><g fill="#fbb13e"><path d="m270.996094 317.871094v9.347656c0 8.28125-6.710938 15-15 15v-39.347656c8.289062 0 15 6.71875 15 15zm0 0"/><path d="m277.726562 265.582031c-4.089843 1.957031-6.730468 6.359375-6.730468 11.21875 0 8.289063-6.710938 15-15 15v-47.589843c2.648437-2.242188 5.582031-4.160157 8.769531-5.691407 7.589844-3.628906 12.121094-11.429687 11.539063-19.847656-.699219-10.050781-8.789063-18.140625-18.828126-18.832031-.5-.03125-.992187-.050782-1.480468-.050782v-30.007812c1.171875 0 2.359375.050781 3.539062.128906 24.902344 1.71875 44.980469 21.789063 46.699219 46.691406 1.433594 20.777344-9.757813 40-28.507813 48.980469zm0 0"/></g></svg>